simulate all controllers
version=1
nRows=4
nColumns=195
inDegrees=yes
endheader
time	/jointset/ground_platform/platform_rx/value	/jointset/ground_platform/platform_rx/speed	/jointset/ground_platform/platform_ry/value	/jointset/ground_platform/platform_ry/speed	/jointset/ground_platform/platform_rz/value	/jointset/ground_platform/platform_rz/speed	/jointset/ground_platform/platform_ty/value	/jointset/ground_platform/platform_ty/speed	/jointset/ground_pelvis/pelvis_tilt/value	/jointset/ground_pelvis/pelvis_tilt/speed	/jointset/ground_pelvis/pelvis_list/value	/jointset/ground_pelvis/pelvis_list/speed	/jointset/ground_pelvis/pelvis_rotation/value	/jointset/ground_pelvis/pelvis_rotation/speed	/jointset/ground_pelvis/pelvis_tx/value	/jointset/ground_pelvis/pelvis_tx/speed	/jointset/ground_pelvis/pelvis_ty/value	/jointset/ground_pelvis/pelvis_ty/speed	/jointset/ground_pelvis/pelvis_tz/value	/jointset/ground_pelvis/pelvis_tz/speed	/jointset/hip_r/hip_flexion_r/value	/jointset/hip_r/hip_flexion_r/speed	/jointset/hip_r/hip_adduction_r/value	/jointset/hip_r/hip_adduction_r/speed	/jointset/hip_r/hip_rotation_r/value	/jointset/hip_r/hip_rotation_r/speed	/jointset/knee_r/knee_angle_r/value	/jointset/knee_r/knee_angle_r/speed	/jointset/ankle_r/ankle_angle_r/value	/jointset/ankle_r/ankle_angle_r/speed	/jointset/subtalar_r/subtalar_angle_r/value	/jointset/subtalar_r/subtalar_angle_r/speed	/jointset/mtp_r/mtp_angle_r/value	/jointset/mtp_r/mtp_angle_r/speed	/jointset/hip_l/hip_flexion_l/value	/jointset/hip_l/hip_flexion_l/speed	/jointset/hip_l/hip_adduction_l/value	/jointset/hip_l/hip_adduction_l/speed	/jointset/hip_l/hip_rotation_l/value	/jointset/hip_l/hip_rotation_l/speed	/jointset/knee_l/knee_angle_l/value	/jointset/knee_l/knee_angle_l/speed	/jointset/ankle_l/ankle_angle_l/value	/jointset/ankle_l/ankle_angle_l/speed	/jointset/subtalar_l/subtalar_angle_l/value	/jointset/subtalar_l/subtalar_angle_l/speed	/jointset/mtp_l/mtp_angle_l/value	/jointset/mtp_l/mtp_angle_l/speed	/jointset/back/lumbar_extension/value	/jointset/back/lumbar_extension/speed	/jointset/back/lumbar_bending/value	/jointset/back/lumbar_bending/speed	/jointset/back/lumbar_rotation/value	/jointset/back/lumbar_rotation/speed	/forceset/glut_med1_r/activation	/forceset/glut_med1_r/fiber_length	/forceset/glut_med2_r/activation	/forceset/glut_med2_r/fiber_length	/forceset/glut_med3_r/activation	/forceset/glut_med3_r/fiber_length	/forceset/bifemlh_r/activation	/forceset/bifemlh_r/fiber_length	/forceset/bifemsh_r/activation	/forceset/bifemsh_r/fiber_length	/forceset/sar_r/activation	/forceset/sar_r/fiber_length	/forceset/add_mag2_r/activation	/forceset/add_mag2_r/fiber_length	/forceset/tfl_r/activation	/forceset/tfl_r/fiber_length	/forceset/pect_r/activation	/forceset/pect_r/fiber_length	/forceset/grac_r/activation	/forceset/grac_r/fiber_length	/forceset/glut_max1_r/activation	/forceset/glut_max1_r/fiber_length	/forceset/glut_max2_r/activation	/forceset/glut_max2_r/fiber_length	/forceset/glut_max3_r/activation	/forceset/glut_max3_r/fiber_length	/forceset/iliacus_r/activation	/forceset/iliacus_r/fiber_length	/forceset/psoas_r/activation	/forceset/psoas_r/fiber_length	/forceset/quad_fem_r/activation	/forceset/quad_fem_r/fiber_length	/forceset/gem_r/activation	/forceset/gem_r/fiber_length	/forceset/peri_r/activation	/forceset/peri_r/fiber_length	/forceset/rect_fem_r/activation	/forceset/rect_fem_r/fiber_length	/forceset/vas_int_r/activation	/forceset/vas_int_r/fiber_length	/forceset/med_gas_r/activation	/forceset/med_gas_r/fiber_length	/forceset/lat_gas_r/activation	/forceset/lat_gas_r/fiber_length	/forceset/soleus_r/activation	/forceset/soleus_r/fiber_length	/forceset/tib_post_r/activation	/forceset/tib_post_r/fiber_length	/forceset/flex_dig_r/activation	/forceset/flex_dig_r/fiber_length	/forceset/flex_hal_r/activation	/forceset/flex_hal_r/fiber_length	/forceset/tib_ant_r/activation	/forceset/tib_ant_r/fiber_length	/forceset/per_brev_r/activation	/forceset/per_brev_r/fiber_length	/forceset/per_long_r/activation	/forceset/per_long_r/fiber_length	/forceset/per_tert_r/activation	/forceset/per_tert_r/fiber_length	/forceset/ext_dig_r/activation	/forceset/ext_dig_r/fiber_length	/forceset/ext_hal_r/activation	/forceset/ext_hal_r/fiber_length	/forceset/glut_med1_l/activation	/forceset/glut_med1_l/fiber_length	/forceset/glut_med2_l/activation	/forceset/glut_med2_l/fiber_length	/forceset/glut_med3_l/activation	/forceset/glut_med3_l/fiber_length	/forceset/bifemlh_l/activation	/forceset/bifemlh_l/fiber_length	/forceset/bifemsh_l/activation	/forceset/bifemsh_l/fiber_length	/forceset/sar_l/activation	/forceset/sar_l/fiber_length	/forceset/add_mag2_l/activation	/forceset/add_mag2_l/fiber_length	/forceset/tfl_l/activation	/forceset/tfl_l/fiber_length	/forceset/pect_l/activation	/forceset/pect_l/fiber_length	/forceset/grac_l/activation	/forceset/grac_l/fiber_length	/forceset/glut_max1_l/activation	/forceset/glut_max1_l/fiber_length	/forceset/glut_max2_l/activation	/forceset/glut_max2_l/fiber_length	/forceset/glut_max3_l/activation	/forceset/glut_max3_l/fiber_length	/forceset/iliacus_l/activation	/forceset/iliacus_l/fiber_length	/forceset/psoas_l/activation	/forceset/psoas_l/fiber_length	/forceset/quad_fem_l/activation	/forceset/quad_fem_l/fiber_length	/forceset/gem_l/activation	/forceset/gem_l/fiber_length	/forceset/peri_l/activation	/forceset/peri_l/fiber_length	/forceset/rect_fem_l/activation	/forceset/rect_fem_l/fiber_length	/forceset/vas_int_l/activation	/forceset/vas_int_l/fiber_length	/forceset/med_gas_l/activation	/forceset/med_gas_l/fiber_length	/forceset/lat_gas_l/activation	/forceset/lat_gas_l/fiber_length	/forceset/soleus_l/activation	/forceset/soleus_l/fiber_length	/forceset/tib_post_l/activation	/forceset/tib_post_l/fiber_length	/forceset/flex_dig_l/activation	/forceset/flex_dig_l/fiber_length	/forceset/flex_hal_l/activation	/forceset/flex_hal_l/fiber_length	/forceset/tib_ant_l/activation	/forceset/tib_ant_l/fiber_length	/forceset/per_brev_l/activation	/forceset/per_brev_l/fiber_length	/forceset/per_long_l/activation	/forceset/per_long_l/fiber_length	/forceset/per_tert_l/activation	/forceset/per_tert_l/fiber_length	/forceset/ext_dig_l/activation	/forceset/ext_dig_l/fiber_length	/forceset/ext_hal_l/activation	/forceset/ext_hal_l/fiber_length	/forceset/ercspn_r/activation	/forceset/ercspn_r/fiber_length	/forceset/ercspn_l/activation	/forceset/ercspn_l/fiber_length	/forceset/intobl_r/activation	/forceset/intobl_r/fiber_length	/forceset/intobl_l/activation	/forceset/intobl_l/fiber_length	/forceset/extobl_r/activation	/forceset/extobl_r/fiber_length	/forceset/extobl_l/activation	/forceset/extobl_l/fiber_length
      0.00000000	     20.00000000	      0.00000000	      0.00000000	      0.00000000	      0.00000000	      0.00000000	      0.25000000	      0.00000000	    -11.99999999	      0.00000000	      0.00000000	      0.00000000	      0.00000000	      0.00000000	      0.05000270	      0.00000000	      1.67000000	      0.00000000	      0.00000000	      0.00000000	     19.99999998	      0.00000000	     -0.99999986	      0.00000000	      4.99999985	      0.00000000	    -19.99999998	      0.00000000	     11.49999977	      0.00000000	     -0.03000064	      0.00000000	      0.00000000	      0.00000000	    -19.99999998	      0.00000000	     10.00000028	      0.00000000	      4.99999985	      0.00000000	   -119.99999986	      0.00000000	     11.49999977	      0.00000000	     -0.03000064	      0.00000000	      0.00000000	      0.00000000	      0.00000000	      0.00000000	      0.00000000	      0.00000000	      0.00000000	      0.00000000	      0.05000000	      0.04357575	      0.05000000	      0.08362391	      0.05000000	      0.06843766	      0.05000000	      0.10252054	      0.05000000	      0.16214763	      0.05000000	      0.44828157	      0.05000000	      0.08145199	      0.05000000	      0.09433646	      0.05000000	      0.06307802	      0.05000000	      0.30964682	      0.05000000	      0.09016565	      0.05000000	      0.10100256	      0.05000000	      0.11743733	      0.05000000	      0.09220087	      0.05000000	      0.08633896	      0.05000000	      0.05137182	      0.05000000	      0.02799630	      0.05000000	      0.02540625	      0.05000000	      0.09879678	      0.05000000	      0.08124441	      0.05000000	      0.09238399	      0.05000000	      0.06542811	      0.05000000	      0.08505025	      0.05000000	      0.03476839	      0.05000000	      0.03194333	      0.05000000	      0.04040403	      0.05000000	      0.07087162	      0.05000000	      0.04936739	      0.05000000	      0.04999319	      0.05000000	      0.07406410	      0.05000000	      0.08688528	      0.05000000	      0.09462792	      0.05000000	      0.04601551	      0.05000000	      0.07892451	      0.05000000	      0.06037764	      0.05000000	      0.02113236	      0.05000000	      0.12200186	      0.05000000	      0.45496511	      0.05000000	      0.05773534	      0.05000000	      0.13368846	      0.05000000	      0.07288697	      0.05000000	      0.24232005	      0.05000000	      0.06582572	      0.05000000	      0.06497935	      0.05000000	      0.05711646	      0.05000000	      0.11869224	      0.05000000	      0.11219124	      0.05000000	      0.04371493	      0.05000000	      0.02457077	      0.05000000	      0.02266386	      0.05000000	      0.18243637	      0.05000000	      0.13930721	      0.05000000	      0.06594925	      0.05000000	      0.03998752	      0.05000000	      0.08505025	      0.05000000	      0.03476839	      0.05000000	      0.03194333	      0.05000000	      0.04040403	      0.05000000	      0.07087162	      0.05000000	      0.04936739	      0.05000000	      0.04999319	      0.05000000	      0.07406410	      0.05000000	      0.08688528	      0.05000000	      0.09462792	      0.05000000	      0.11943514	      0.05000000	      0.11943514	      0.05000000	      0.09818663	      0.05000000	      0.09818663	      0.05000000	      0.13256617	      0.05000000	      0.13256617
      0.00100000	     20.00000000	      0.00000000	      0.00000000	      0.00000000	     -0.00000000	     -0.00000000	      0.25000000	      0.00000000	    -11.99968202	      0.63498034	     -0.00021859	     -0.43381211	      0.00018423	      0.36949682	      0.05000284	      0.00027264	      1.66999655	     -0.00691058	     -0.00000130	     -0.00258947	     19.99872867	     -2.53904606	     -1.00085421	     -1.70576339	      4.99671292	     -6.55376405	    -19.99691650	      6.14864762	     11.47653329	    -46.58623481	     -0.01117258	     37.57828176	     -0.00000000	     -0.00000000	    -19.99999998	      0.00000000	     10.00000028	     -0.00000000	      4.99999985	     -0.00000000	   -119.99999986	     -0.00000000	     11.49999977	      0.00000000	     -0.03000064	      0.00000000	      0.00000000	      0.00000000	     -0.00039604	     -0.79046014	      0.00037858	      0.75206465	     -0.00015485	     -0.31094185	      0.04931459	      0.04357589	      0.04928705	      0.08362409	      0.04928705	      0.06843776	      0.04929002	      0.10252080	      0.04929856	      0.16214810	      0.04928919	      0.44828279	      0.04928821	      0.08145228	      0.04929613	      0.09433669	      0.04930104	      0.06307833	      0.04929315	      0.30964772	      0.04928705	      0.09016594	      0.04928705	      0.10100284	      0.04928705	      0.11743762	      0.04930292	      0.09220114	      0.04930163	      0.08633921	      0.04928705	      0.05137180	      0.04928705	      0.02799631	      0.04928705	      0.02540631	      0.04928705	      0.09879704	      0.04928705	      0.08124461	      0.04928705	      0.09238410	      0.04928705	      0.06542819	      0.04928705	      0.08505024	      0.07327897	      0.03476354	      0.07327897	      0.03193802	      0.07327897	      0.04039732	      0.07510943	      0.07085634	      0.13180892	      0.04934214	      0.13133809	      0.04996816	      0.13231941	      0.07402602	      0.13222992	      0.08683364	      0.07517541	      0.09461043	      0.04928705	      0.04601564	      0.04928705	      0.07892471	      0.04928705	      0.06037779	      0.04928705	      0.02113262	      0.04928705	      0.12200226	      0.04928705	      0.45496623	      0.04928705	      0.05773563	      0.04928705	      0.13368869	      0.04928705	      0.07288719	      0.04928705	      0.24232085	      0.04928705	      0.06582605	      0.04928705	      0.06497969	      0.04928705	      0.05711680	      0.04928705	      0.11869247	      0.04928705	      0.11219147	      0.04928705	      0.04371505	      0.04928705	      0.02457083	      0.04928705	      0.02266392	      0.04928705	      0.18243662	      0.04928705	      0.13930745	      0.04928705	      0.06594947	      0.04928705	      0.03998767	      0.04928705	      0.08505044	      0.04928705	      0.03476847	      0.04928705	      0.03194341	      0.04928705	      0.04040414	      0.04928705	      0.07087186	      0.04928705	      0.04936751	      0.04928705	      0.04999331	      0.04928705	      0.07406428	      0.04928705	      0.08688552	      0.04928705	      0.09462818	      0.04928776	      0.11943541	      0.04929232	      0.11943545	      0.04928705	      0.09818685	      0.04929133	      0.09818688	      0.04928705	      0.13256643	      0.04928705	      0.13256645
      0.00200000	     20.00000000	      0.00000000	      0.00000000	      0.00000000	      0.00000000	      0.00000000	      0.25000000	      0.00000000	    -11.99873353	      1.25950688	     -0.00085563	     -0.83189816	      0.00074326	      0.75170155	      0.05000325	      0.00056714	      1.66998614	     -0.01393993	     -0.00000516	     -0.00512472	     19.99493586	     -5.03637112	     -1.00340719	     -3.39890997	      4.98695042	    -12.93427918	    -19.98777085	     12.09386389	     11.40809519	    -89.39224430	      0.04508304	     74.93661367	      0.00000000	      0.00000000	    -19.99999998	      0.00000000	     10.00000028	     -0.00000000	      4.99999985	     -0.00000000	   -119.99999986	     -0.00000000	     11.49999977	      0.00000000	     -0.03000064	      0.00000000	      0.00000000	     -0.00000000	     -0.00157509	     -1.56354245	      0.00148655	      1.45175089	     -0.00062686	     -0.63668719	      0.04869386	      0.04357639	      0.04858556	      0.08362454	      0.04858556	      0.06843778	      0.04859702	      0.10252161	      0.04863089	      0.16214971	      0.04859401	      0.44828637	      0.04859021	      0.08145314	      0.04862144	      0.09433740	      0.04864092	      0.06307950	      0.04860961	      0.30965068	      0.04858556	      0.09016656	      0.04858556	      0.10100342	      0.04858556	      0.11743827	      0.04864831	      0.09220202	      0.04864321	      0.08634003	      0.04858556	      0.05137098	      0.04858556	      0.02799608	      0.04858556	      0.02540644	      0.04858556	      0.09879775	      0.04858556	      0.08124499	      0.04858556	      0.09238393	      0.04858556	      0.06542806	      0.04858556	      0.08504894	      0.09203312	      0.03475051	      0.09203312	      0.03192384	      0.09203312	      0.04037940	      0.09847952	      0.07081695	      0.19562521	      0.04928298	      0.19406002	      0.04990796	      0.19723169	      0.07394528	      0.19690789	      0.08671251	      0.09873939	      0.09456455	      0.04858556	      0.04601602	      0.04858556	      0.07892529	      0.04858556	      0.06037824	      0.04858556	      0.02113340	      0.04858556	      0.12200337	      0.04858556	      0.45496917	      0.04858556	      0.05773646	      0.04858556	      0.13368933	      0.04858556	      0.07288782	      0.04858556	      0.24232308	      0.04858556	      0.06582703	      0.04858556	      0.06498070	      0.04858556	      0.05711779	      0.04858556	      0.11869314	      0.04858556	      0.11219218	      0.04858556	      0.04371541	      0.04858556	      0.02457100	      0.04858556	      0.02266411	      0.04858556	      0.18243726	      0.04858556	      0.13930812	      0.04858556	      0.06595012	      0.04858556	      0.03998814	      0.04858556	      0.08505102	      0.04858556	      0.03476870	      0.04858556	      0.03194366	      0.04858556	      0.04040445	      0.04858556	      0.07087257	      0.04858556	      0.04936788	      0.04858556	      0.04999367	      0.04858556	      0.07406484	      0.04858556	      0.08688627	      0.04858556	      0.09462899	      0.04858849	      0.11943617	      0.04860621	      0.11943646	      0.04858556	      0.09818738	      0.04860217	      0.09818763	      0.04858556	      0.13256713	      0.04858556	      0.13256727
      0.00342412	     20.00000000	      0.00000000	      0.00000000	      0.00000000	      0.00000000	      0.00000000	      0.25000000	      0.00000000	    -11.99632520	      2.11460958	     -0.00238182	     -1.28492911	      0.00222499	      1.33928766	      0.05000440	      0.00105349	      1.66995895	     -0.02433513	     -0.00001495	     -0.00858924	     19.98530880	     -8.44941936	     -1.00995981	     -5.80183454	      4.96232299	    -21.54148175	    -19.96488843	     19.88005882	     11.24410326	   -138.02483244	      0.18987337	    128.50637130	      0.00000000	      0.00000000	    -19.99999998	     -0.00000000	     10.00000028	     -0.00000000	      4.99999985	     -0.00000000	   -119.99999986	     -0.00000000	     11.49999977	      0.00000000	     -0.03000064	     -0.00000000	     -0.00000000	     -0.00000000	     -0.00455501	     -2.60814267	      0.00417393	      2.28422801	     -0.00189114	     -1.15046243	      0.04791352	      0.04357791	      0.04760589	      0.08362540	      0.04760589	      0.06843651	      0.04763689	      0.10252372	      0.04773483	      0.16215461	      0.04763002	      0.44829529	      0.04762017	      0.08145536	      0.04770850	      0.09433928	      0.04776552	      0.06308341	      0.04767471	      0.30965912	      0.04760589	      0.09016739	      0.04760589	      0.10100401	      0.04760589	      0.11743919	      0.04778620	      0.09220469	      0.04777158	      0.08634235	      0.04760589	      0.05136633	      0.04760589	      0.02799439	      0.04760589	      0.02540665	      0.04760589	      0.09879936	      0.04760589	      0.08124521	      0.04760589	      0.09238087	      0.04760589	      0.06542587	      0.04760589	      0.08504097	      0.11314635	      0.03472065	      0.11314635	      0.03189178	      0.11314635	      0.04033887	      0.12870856	      0.07073594	      0.26951522	      0.04916786	      0.26583549	      0.04978498	      0.27267508	      0.07381418	      0.27173454	      0.08647680	      0.12954148	      0.09446741	      0.04760589	      0.04601700	      0.04760589	      0.07892670	      0.04760589	      0.06037935	      0.04760589	      0.02113542	      0.04760589	      0.12200600	      0.04760589	      0.45497545	      0.04760589	      0.05773857	      0.04760589	      0.13369090	      0.04760589	      0.07288926	      0.04760589	      0.24232826	      0.04760589	      0.06582945	      0.04760589	      0.06498320	      0.04760589	      0.05712026	      0.04760589	      0.11869478	      0.04760589	      0.11219397	      0.04760589	      0.04371625	      0.04760589	      0.02457144	      0.04760589	      0.02266461	      0.04760589	      0.18243863	      0.04760589	      0.13930968	      0.04760589	      0.06595184	      0.04760589	      0.03998937	      0.04760589	      0.08505252	      0.04760589	      0.03476930	      0.04760589	      0.03194432	      0.04760589	      0.04040529	      0.04760589	      0.07087440	      0.04760589	      0.04936883	      0.04760589	      0.04999462	      0.04760589	      0.07406627	      0.04760589	      0.08688821	      0.04760589	      0.09463109	      0.04761524	      0.11943797	      0.04766410	      0.11943930	      0.04760589	      0.09818837	      0.04765161	      0.09818963	      0.04760589	      0.13256862	      0.04760589	      0.13256928
